<?xml version="1.0" standalone="no"?>
<!DOCTYPE svg PUBLIC "-//W3C//DTD SVG 20010904//EN"
 "http://www.w3.org/TR/2001/REC-SVG-20010904/DTD/svg10.dtd">
<svg version="1.0" xmlns="http://www.w3.org/2000/svg"
 width="1080.000000pt" height="1080.000000pt" viewBox="0 0 1080.000000 1080.000000"
 preserveAspectRatio="xMidYMid meet">

<g transform="translate(0.000000,1080.000000) scale(0.100000,-0.100000)"
fill="#000000" stroke="none">
<path d="M5533 8525 c-23 -7 -62 -24 -85 -38 -61 -37 -2333 -2315 -2392 -2399
-98 -140 -181 -334 -223 -522 -22 -102 -22 -375 1 -481 41 -192 127 -385 238
-532 83 -111 1063 -1090 1135 -1133 54 -33 63 -35 143 -35 76 0 90 3 134 29
61 36 130 107 156 161 27 56 36 158 20 226 -13 53 -20 61 -531 574 -285 286
-532 538 -550 560 -41 51 -94 163 -114 238 -18 69 -20 238 -4 305 23 96 83
204 160 288 78 86 793 798 1330 1324 176 173 332 332 346 353 13 21 79 94 146
161 430 432 454 460 476 574 43 211 -180 412 -386 347z"/>
<path d="M7862 4352 c-10 -10 -42 -98 -71 -198 -70 -240 -111 -379 -167 -564
-25 -85 -50 -171 -56 -190 -5 -19 -68 -232 -139 -472 -71 -240 -129 -448 -129
-462 0 -30 28 -47 115 -70 50 -13 63 -13 80 -2 16 11 76 203 293 934 149 506
272 934 272 950 0 38 -10 46 -96 71 -86 25 -80 25 -102 3z"/>
<path d="M6723 3747 c-291 -291 -343 -347 -343 -372 0 -24 52 -80 343 -372
299 -300 346 -343 372 -343 42 0 198 154 198 195 0 22 -46 73 -247 274 l-246
246 236 235 c207 207 264 270 264 296 0 4 -39 46 -87 95 -71 73 -92 89 -117
89 -27 0 -73 -42 -373 -343z"/>
<path d="M8153 4007 c-59 -59 -83 -90 -83 -108 0 -18 59 -83 245 -269 135
-135 245 -249 245 -255 0 -6 -110 -120 -245 -255 -183 -183 -245 -251 -245
-269 0 -16 26 -50 82 -107 67 -69 87 -84 112 -84 27 0 73 43 374 344 286 285
345 348 345 371 0 23 -59 86 -344 371 -296 296 -348 344 -373 344 -24 0 -46
-17 -113 -83z"/>
</g>
</svg>
