<?xml version="1.0" standalone="no"?>
<!DOCTYPE svg PUBLIC "-//W3C//DTD SVG 20010904//EN"
 "http://www.w3.org/TR/2001/REC-SVG-20010904/DTD/svg10.dtd">
<svg version="1.0" xmlns="http://www.w3.org/2000/svg"
 width="1920.000000pt" height="1080.000000pt" viewBox="0 0 1920.000000 1080.000000"
 preserveAspectRatio="xMidYMid meet">

<g transform="translate(0.000000,1080.000000) scale(0.100000,-0.100000)"
fill="#000000" stroke="none">
<path d="M10085 7747 c-41 -20 -235 -210 -1079 -1058 -566 -569 -1049 -1061
-1074 -1094 -62 -83 -138 -244 -169 -362 -24 -88 -26 -116 -27 -283 -1 -213
16 -307 80 -458 78 -183 107 -217 623 -736 262 -263 505 -500 541 -528 88 -67
226 -133 346 -164 122 -32 362 -44 495 -24 154 22 307 82 444 173 35 23 186
167 363 346 346 349 358 365 350 480 -6 78 -31 131 -85 182 -61 59 -98 73
-183 74 -55 0 -86 -5 -115 -20 -22 -11 -119 -96 -215 -190 -448 -435 -436
-424 -502 -454 -112 -51 -249 -64 -381 -36 -138 29 -148 37 -650 546 -253 258
-473 488 -488 513 -55 87 -73 159 -73 286 0 130 21 207 77 292 18 25 238 256
490 512 430 436 463 468 530 501 161 78 396 69 539 -21 22 -14 171 -153 330
-307 333 -325 355 -341 463 -335 110 6 194 60 240 153 27 55 28 185 1 235 -24
45 -556 586 -650 662 -85 68 -192 126 -301 163 -44 15 -82 29 -84 31 -3 3 110
120 251 262 140 141 263 273 273 292 26 50 31 147 11 207 -50 151 -226 227
-371 160z"/>
<path d="M11470 6530 c0 -11 2 -20 5 -20 2 0 9 9 15 20 9 16 8 20 -5 20 -8 0
-15 -9 -15 -20z"/>
<path d="M7174 5629 c-126 -73 -245 -141 -264 -152 -19 -10 -39 -23 -45 -27
-5 -4 -32 -20 -60 -35 -47 -26 -341 -195 -543 -312 -111 -65 -135 -95 -129
-166 3 -35 12 -56 32 -77 21 -22 227 -151 360 -226 11 -6 92 -54 180 -106 219
-130 484 -287 520 -308 17 -10 61 -36 100 -59 103 -61 173 -55 223 19 19 28
23 44 20 81 -7 65 -29 89 -142 156 -54 32 -115 68 -135 79 -53 31 -557 330
-618 366 -61 37 -81 67 -67 105 7 22 57 55 239 161 127 73 237 136 245 139 8
4 38 22 67 40 29 18 55 33 58 33 3 0 24 12 46 26 23 14 62 37 87 51 200 112
227 139 219 221 -7 66 -69 122 -135 122 -19 0 -108 -45 -258 -131z"/>
<path d="M11693 5740 c-73 -44 -89 -153 -31 -208 24 -22 65 -47 428 -262 456
-270 494 -295 504 -323 7 -18 6 -34 -3 -50 -11 -20 -118 -87 -350 -218 -41
-23 -188 -107 -471 -271 -58 -34 -104 -68 -117 -88 -45 -66 -21 -160 50 -193
62 -30 92 -22 227 58 57 34 408 238 470 272 19 11 109 63 200 116 91 52 223
129 295 170 86 50 137 86 152 108 37 55 29 123 -22 175 -10 10 -169 108 -247
152 -18 11 -161 96 -318 189 -500 298 -604 360 -637 376 -42 22 -91 21 -130
-3z"/>
<path d="M9390 5191 c-73 -22 -123 -66 -161 -141 -17 -34 -23 -61 -23 -115 1
-83 17 -126 71 -185 77 -86 -17 -80 1168 -80 663 0 1063 4 1086 10 49 14 115
73 144 131 37 72 35 177 -3 250 -31 60 -93 113 -150 129 -44 12 -2092 13
-2132 1z"/>
</g>
</svg>
